<?xml version="1.0" standalone="no"?>
<!DOCTYPE svg PUBLIC "-//W3C//DTD SVG 20010904//EN"
 "http://www.w3.org/TR/2001/REC-SVG-20010904/DTD/svg10.dtd">
<svg version="1.0" xmlns="http://www.w3.org/2000/svg"
 width="540.000000pt" height="540.000000pt" viewBox="0 0 540.000000 540.000000"
 preserveAspectRatio="xMidYMid meet">
<metadata>
Created by potrace 1.14, written by Peter Selinger 2001-2017
</metadata>
<g transform="translate(0.000000,540.000000) scale(0.100000,-0.100000)"
fill="#000000" stroke="none">
<path d="M2795 5231 c-18 -21 -18 -21 11 -21 46 0 182 -36 262 -69 151 -63
184 -92 834 -739 541 -538 620 -613 634 -601 14 11 -61 90 -613 639 -586 584
-634 629 -718 678 -87 51 -257 113 -350 127 -33 5 -44 2 -60 -14z"/>
<path d="M2650 4129 c-77 -31 -160 -115 -190 -194 -49 -129 -37 -266 36 -405
44 -84 89 -131 177 -182 79 -46 80 -45 -28 -84 -33 -12 -123 -45 -200 -74 -77
-29 -187 -69 -245 -90 -58 -21 -134 -49 -170 -63 -36 -13 -114 -43 -175 -65
-128 -47 -287 -105 -615 -227 -224 -82 -275 -105 -237 -105 9 0 420 52 914
116 494 63 919 117 946 119 59 5 60 0 12 -144 -19 -58 -95 -297 -170 -531 -74
-234 -155 -486 -179 -560 -190 -582 -201 -620 -172 -590 7 8 100 161 206 340
106 179 275 462 375 630 640 1071 1015 1704 1015 1711 0 5 -4 9 -8 9 -4 0
-172 -61 -372 -135 -336 -125 -460 -168 -460 -161 0 1 11 35 25 75 50 141 41
250 -30 392 -49 96 -100 149 -189 194 -96 49 -183 56 -266 24z"/>
<path d="M4843 3498 c-10 -12 5 -33 83 -117 208 -224 286 -411 285 -690 0
-201 -69 -402 -190 -561 -78 -102 -1715 -1730 -1790 -1780 -166 -111 -332
-162 -529 -162 -279 1 -471 83 -694 300 -76 74 -108 92 -108 62 0 -18 131
-149 203 -204 285 -216 640 -263 974 -130 170 68 143 43 1103 1004 823 822
900 901 939 972 103 186 136 311 135 513 -1 280 -89 487 -298 703 -85 87 -104
102 -113 90z"/>
<path d="M167 2602 c-16 -17 -16 -25 -3 -93 25 -130 68 -237 141 -351 36 -56
186 -212 660 -687 362 -362 618 -612 626 -609 8 3 14 10 14 16 0 6 -268 280
-596 609 -327 329 -617 627 -643 663 -86 117 -145 256 -169 398 -12 70 -13 73
-30 54z"/>
</g>
</svg>
